<?xml version="1.0" encoding="UTF-8"?><svg id="Layer_2" xmlns="http://www.w3.org/2000/svg" viewBox="0 0 24 24"><path d="M18.95996,3.52344H5.04004c-.55273,0-1,.44727-1,1v14.95312c0,.55273.44727,1,1,1h13.91992c.55273,0,1-.44727,1-1v-4.9082c0-.55273-.44727-1-1-1s-1,.44727-1,1v3.9082H6.04004V5.52344h11.91992v2.08301l-5.83008,5.83008-2.13184-2.13184c-.39062-.39062-1.02344-.39062-1.41406,0s-.39062,1.02344,0,1.41406l2.83887,2.83887c.19531.19531.45117.29297.70703.29297s.51172-.09766.70703-.29297l6.8288-6.8288c.09277-.09247.16638-.20349.21729-.32648.05048-.12213.07697-.25177.07697-.38184v-3.49707c0-.55273-.44727-1-1-1Z"/></svg>