<?xml version="1.0" encoding="UTF-8"?><svg id="Layer_2" xmlns="http://www.w3.org/2000/svg" viewBox="0 0 24 24"><path d="M7.61133,20.13379c.48584.26172,1.09326.08203,1.35498-.4043.2627-.48535.08203-1.09277-.40381-1.35547-2.3457-1.26855-3.80273-3.71094-3.80273-6.37402,0-3.99219,3.24805-7.24023,7.24023-7.24023s7.24023,3.24805,7.24023,7.24023c0,3.65332-2.71924,6.68262-6.24023,7.17188v-1.14844c0-.55273-.44775-1-1-1s-1,.44727-1,1v2.2168c0,.55273.44775,1,1,1,5.09521,0,9.24023-4.14551,9.24023-9.24023S17.09521,2.75977,12,2.75977,2.75977,6.90527,2.75977,12c0,3.39844,1.85889,6.51465,4.85156,8.13379Z"/><path d="M12,6.84375c-.55225,0-1,.44727-1,1v4.15625c0,.55273.44775,1,1,1h3.12354c.55225,0,1-.44727,1-1s-.44775-1-1-1h-2.12354v-3.15625c0-.55273-.44775-1-1-1Z"/></svg>