<?xml version="1.0" encoding="UTF-8"?><svg id="Layer_2" xmlns="http://www.w3.org/2000/svg" viewBox="0 0 24 24"><path d="M19.20703,14.4126V5.06299c0-.33984-.17285-.65625-.45801-.84033-.28516-.18457-.64355-.21191-.9541-.0708-1.76367.79688-3.61426.37842-5.57422-.06445-2.1861-.49377-4.44495-1.00195-6.80695.05212-.00537.0022-.01074.00378-.01605.00604-.00568.00256-.01117.00372-.01685.00629-.10284.04651-.19122.11249-.27057.18744-.02258.0213-.03949.04578-.06.06909-.05768.06549-.10571.13641-.14453.21454-.01544.03101-.03052.06006-.04272.09277-.04126.11011-.07007.2254-.07007.34729v14.41357c0,.55225.44727,1,1,1s1-.44775,1-1V5.75293c1.58691-.48291,3.24316-.1084,4.98633.28564,1.75586.39697,3.55859.80371,5.42773.40186v7.28223c-1.58887.4834-3.24414.1084-4.98633-.28516-.65918-.14893-1.31934-.29736-1.97949-.40381-.54688-.09033-1.05859.2832-1.14648.82812-.08789.54541.2832,1.05859.82812,1.14648.61914.09961,1.23828.24023,1.85742.38037,1.24414.28076,2.5127.56738,3.80957.56738.99219,0,2.00098-.16748,3.0293-.63232.35742-.16162.58789-.51807.58789-.91113Z"/></svg>