<?xml version="1.0" encoding="UTF-8"?><svg id="Layer_2" xmlns="http://www.w3.org/2000/svg" viewBox="0 0 24 24"><path d="M21.34277,4.84668H2.65723c-.55225,0-1,.44727-1,1v3.5293c0,.39844.23682.75879.60254.91797.68213.29492,1.12305.96484,1.12305,1.70605s-.44092,1.41113-1.12305,1.70605c-.36572.15918-.60254.51953-.60254.91797v3.5293c0,.55273.44775,1,1,1h4.14697c.55225,0,1-.44727,1-1s-.44775-1-1-1h-3.14697v-1.93848c1.06592-.70703,1.72559-1.90723,1.72559-3.21484s-.65967-2.50781-1.72559-3.21484v-1.93848h7.34277v.90332c0,.55273.44775,1,1,1s1-.44727,1-1v-.90332h7.34277v1.93848c-1.06592.70703-1.72559,1.90723-1.72559,3.21484s.65967,2.50781,1.72559,3.21484v1.93848h-7.34277v-.90234c0-.55273-.44775-1-1-1s-1,.44727-1,1v1.90234c0,.55273.44775,1,1,1h9.34277c.55225,0,1-.44727,1-1v-3.5293c0-.39844-.23682-.75879-.60254-.91797-.68213-.29492-1.12305-.96484-1.12305-1.70605s.44092-1.41113,1.12305-1.70605c.36572-.15918.60254-.51953.60254-.91797v-3.5293c0-.55273-.44775-1-1-1Z"/><path d="M12,13.625c.55225,0,1-.44727,1-1v-1.25c0-.55273-.44775-1-1-1s-1,.44727-1,1v1.25c0,.55273.44775,1,1,1Z"/></svg>