<?xml version="1.0" encoding="UTF-8"?><svg id="Layer_2" xmlns="http://www.w3.org/2000/svg" viewBox="0 0 24 24"><path d="M4.94971,20.47656h3.05225c.55225,0,1-.44775,1-1s-.44775-1-1-1h-2.05225v-8.93359l6.05029-3.83545,6.05029,3.83545v8.93359h-5.05029v-4.57617c0-.55225-.44775-1-1-1s-1,.44775-1,1v5.57617c0,.55225.44775,1,1,1h7.05029c.55225,0,1-.44775,1-1v-10.48389c0-.34229-.17529-.66113-.46484-.84473l-7.05029-4.46924c-.32617-.20703-.74414-.20703-1.07031,0l-7.05029,4.46924c-.28955.18359-.46484.50244-.46484.84473v10.48389c0,.55225.44775,1,1,1Z"/></svg>