<?xml version="1.0" encoding="UTF-8"?><svg id="Layer_2" xmlns="http://www.w3.org/2000/svg" viewBox="0 0 24 24"><path d="M14.3457,17.78076c.42383.35303,1.0542.29639,1.40869-.12744,2.53418-3.03857,3.81885-5.50098,3.81885-7.31982,0-4.17627-3.39746-7.57373-7.57324-7.57373s-7.57324,3.39746-7.57324,7.57373c0,3.94434,6.17822,9.95752,6.88281,10.62988.19336.18506.44189.27686.69043.27686.26367,0,.52686-.10352.72314-.30957.38135-.39941.3667-1.03223-.03271-1.41357-2.42139-2.3125-6.26367-6.85059-6.26367-9.18359,0-3.07324,2.5-5.57373,5.57324-5.57373s5.57324,2.50049,5.57324,5.57373c0,1.30029-1.19141,3.44482-3.35498,6.03857-.35352.42432-.29639,1.05469.12744,1.40869Z"/><path d="M11,8.83838v2.85938c0,.55225.44775,1,1,1s1-.44775,1-1v-2.85938c0-.55225-.44775-1-1-1s-1,.44775-1,1Z"/></svg>