<?xml version="1.0" encoding="UTF-8"?><svg id="Layer_2" xmlns="http://www.w3.org/2000/svg" viewBox="0 0 24 24"><path d="M17.65723,12.67188c.55273,0,1-.44727,1-1v-5.70703c0-1.76758-1.43848-3.20508-3.20605-3.20508h-6.90234c-1.76758,0-3.20605,1.4375-3.20605,3.20508v12.07031c0,1.76758,1.43848,3.20508,3.20605,3.20508h6.90234c1.76758,0,3.20605-1.4375,3.20605-3.20508v-2.0293c0-.55273-.44727-1-1-1H7.34277V5.96484c0-.66406.54102-1.20508,1.20605-1.20508h6.90234c.66504,0,1.20605.54102,1.20605,1.20508v5.70703c0,.55273.44727,1,1,1ZM16.65723,17.00586v1.0293c0,.66406-.54102,1.20508-1.20605,1.20508h-6.90234c-.66504,0-1.20605-.54102-1.20605-1.20508v-1.0293h9.31445Z"/><path d="M10.6709,6.07324c-.55273,0-1,.44727-1,1s.44727,1,1,1h2.6582c.55273,0,1-.44727,1-1s-.44727-1-1-1h-2.6582Z"/></svg>