<?xml version="1.0" encoding="UTF-8"?><svg id="Layer_2" xmlns="http://www.w3.org/2000/svg" viewBox="0 0 24 24"><path d="M5.07275,17.11035v2.36621c0,.55225.44775,1,1,1h11.85449c.55225,0,1-.44775,1-1v-2.36621c0-1.57178-.54102-3.11133-1.52344-4.33496-.3457-.43066-.9751-.50049-1.40576-.15381-.43066.3457-.49951.9751-.15381,1.40576.7085.88232,1.08301,1.94873,1.08301,3.08301v1.36621H7.07275v-1.36621c0-2.7168,2.21045-4.92725,4.92725-4.92725,2.3877,0,4.33008-1.94238,4.33008-4.33008,0-2.38721-1.94238-4.32959-4.33008-4.32959s-4.33008,1.94238-4.33008,4.32959c0,1.1911.48389,2.27087,1.26477,3.0545-2.2843,1.13361-3.86194,3.48444-3.86194,6.20282ZM9.66992,7.85303c0-1.28467,1.04541-2.32959,2.33008-2.32959s2.33008,1.04492,2.33008,2.32959-1.04541,2.33008-2.33008,2.33008-2.33008-1.04541-2.33008-2.33008Z"/></svg>