<?xml version="1.0" encoding="UTF-8"?><svg id="Layer_2" xmlns="http://www.w3.org/2000/svg" viewBox="0 0 24 24"><path d="M20.03223,9.25l-4.85107-.83887-2.29688-4.35449c-.3457-.65625-1.42285-.65625-1.76855,0l-2.29688,4.35449-4.85107.83887c-.36572.06348-.66602.32324-.78076.67676-.11475.35254-.02441.73926.23438,1.00586l3.77441,3.88184c.38477.39551,1.01855.40625,1.41406.01953.396-.38477.40479-1.01758.01953-1.41406l-2.45264-2.52246,3.46777-.59961c.30566-.05273.56934-.24414.71387-.51855l1.6416-3.1123,1.6416,3.1123c.14453.27441.4082.46582.71387.51855l3.46777.59961-2.45264,2.52246c-.21631.22266-.31738.53223-.27295.83984l.50146,3.48242-3.15771-1.55273c-.27832-.13672-.60449-.13672-.88281,0l-4.85889,2.38965c-.49561.24414-.69971.84277-.45605,1.33887.17383.35352.52881.55859.89844.55859.14795,0,.29834-.0332.44043-.10254l4.41748-2.17285,4.41748,2.17285c.33398.16211.72803.13086,1.0293-.08887.2998-.21777.45459-.58398.40186-.95117l-.70117-4.87207,3.43115-3.5293c.25879-.2666.34912-.65332.23438-1.00586-.11475-.35352-.41504-.61328-.78076-.67676Z"/></svg>