<?xml version="1.0" encoding="UTF-8"?><svg id="Layer_2" xmlns="http://www.w3.org/2000/svg" viewBox="0 0 24 24"><path d="M4.23633,20.42969l3.91113-1.23828c.52637-.1665.81836-.72852.65137-1.25488-.16602-.52588-.72461-.81982-1.25488-.65137l-1.55664.49268,6.0127-11.14795,6.0127,11.14795-5.0127-1.5874v-3.92822c0-.55225-.44727-1-1-1s-1,.44775-1,1v4.63818c-.00195.07227.00488.14404.01855.21387.02832.14697.08887.28223.17383.39893.08594.11719.19727.21631.33008.28809.06152.03418.12793.06152.19727.08154l8.04395,2.54688c.09961.03174.20117.04688.30176.04688.29297,0,.57715-.12891.77051-.3623.25977-.31396.30273-.75391.10938-1.1123L12.87988,4.04883c-.34766-.64746-1.41211-.64746-1.75977,0L3.05469,19.00195c-.19336.3584-.15039.79834.10938,1.1123.25879.31299.68066.43799,1.07227.31543Z"/></svg>