<?xml version="1.0" encoding="UTF-8"?><svg id="Layer_2" xmlns="http://www.w3.org/2000/svg" viewBox="0 0 24 24"><path d="M4.62207,20.47656h14.75586c.55225,0,1-.44775,1-1v-4.19189c0-1.66553-1.35498-3.02051-3.02051-3.02051H7.24036l.73523-2.48438c.1167-.32715.42871-.54736.77637-.54736h6.49609c.34766,0,.65967.22021.76025.49854l.0542.18115c.12988.43359.52734.71387.95752.71387.09521,0,.19141-.01367.28711-.04248.5293-.1582.82959-.71533.67139-1.24463l-.07031-.22998c-.39941-1.12256-1.46875-1.87646-2.66016-1.87646h-6.49609c-1.19141,0-2.26074.75391-2.67725,1.92773l-1.06433,3.59039c-.83295.53833-1.38831,1.47064-1.38831,2.53412v4.19189c0,.55225.44775,1,1,1ZM18.37793,15.28467v3.19189H5.62207v-3.19189c0-.5625.45801-1.02051,1.02051-1.02051h10.71484c.5625,0,1.02051.45801,1.02051,1.02051Z"/><path d="M9.74316,5.52344h4.51367c.55225,0,1-.44775,1-1s-.44775-1-1-1h-4.51367c-.55225,0-1,.44775-1,1s.44775,1,1,1Z"/><path d="M7.67969,17.43994c.13037.0498.25.08008.39014.08008.25977,0,.52002-.11035.7002-.29004.18994-.18994.2998-.4502.2998-.70996,0-.26025-.10986-.52002-.2998-.70996-.28027-.28027-.72021-.37012-1.09033-.22021-.11963.06006-.22998.12988-.31982.22021-.08984.08984-.16992.19971-.22021.32959-.0498.12012-.07959.25-.07959.38037,0,.25977.10986.52002.2998.70996.08984.08984.2002.15967.31982.20996Z"/><path d="M15.93994,17.52002c.06006,0,.12988-.01025.18994-.02002.06006-.02002.12988-.03027.18994-.06006.06006-.02002.12012-.06006.16992-.09033.05029-.03955.10986-.07959.1499-.11963.18994-.18994.29004-.4502.29004-.70996,0-.27002-.1001-.52002-.29004-.70996-.04004-.05029-.09961-.09033-.1499-.12012-.0498-.04004-.10986-.07031-.16992-.1001-.06006-.02002-.12988-.04004-.18994-.0498-.33008-.07031-.66992.03955-.8999.27002-.18994.18994-.29004.44971-.29004.70996,0,.25977.1001.52002.29004.70996.17969.17969.43994.29004.70996.29004Z"/></svg>