<?xml version="1.0" encoding="UTF-8"?><svg id="Layer_2" xmlns="http://www.w3.org/2000/svg" viewBox="0 0 24 24"><path d="M21.29688,9.88721l-2.48438-1.05127-3.12598-2.87842c-.03809-.03418-.07812-.06592-.12012-.09473-.81738-.54834-1.74902-.83838-2.69434-.83838H4.05957c-1.4873,0-2.7168,1.16357-2.79785,2.64258l-.50781,8.25635c-.0166.27539.08008.54541.26953.74658s.45312.31494.72852.31494h1.83606c.41376,1.15625,1.50934,1.99072,2.80554,1.99072,1.64941,0,2.99121-1.3418,2.99121-2.99072s-1.3418-2.99072-2.99121-2.99072c-1.2962,0-2.39178.83447-2.80554,1.99072h-.77258l.44238-7.20117c.02344-.42578.37598-.75928.80176-.75928h8.8125c.52441,0,1.04785.15869,1.51953.45996l3.19336,2.94092c.08496.07764.18262.14014.28809.18506l2.66797,1.12842c.41602.16357.70703.69482.70703,1.2915v1.95459h-.79797c-.41382-1.15625-1.50958-1.99072-2.80652-1.99072-1.2962,0-2.39178.83447-2.80554,1.99072h-3.28333c-.55273,0-1,.44775-1,1s.44727,1,1,1h3.28333c.41376,1.15625,1.50934,1.99072,2.80554,1.99072,1.29694,0,2.3927-.83447,2.80652-1.99072h1.79797c.55273,0,1-.44775,1-1v-2.95459c0-1.42041-.79395-2.6875-1.95117-3.14307ZM6.39355,14.99414c.54688,0,.99121.44434.99121.99072s-.44434.99072-.99121.99072c-.5459,0-.99023-.44434-.99023-.99072s.44434-.99072.99023-.99072ZM17.64355,16.97559c-.5459,0-.99023-.44434-.99023-.99072s.44434-.99072.99023-.99072c.54688,0,.99121.44434.99121.99072s-.44434.99072-.99121.99072Z"/></svg>