<?xml version="1.0" encoding="UTF-8"?><svg id="Layer_2" xmlns="http://www.w3.org/2000/svg" viewBox="0 0 24 24"><path d="M10.36719,10.8252c.39062.39062,1.02344.39062,1.41406,0,.79297-.79199.79297-2.08203,0-2.87402l-.91016-.91016c-.66992-.66699-1.69531-.79297-2.50488-.29883-.2168.13379-.41504.29004-.58496.46191-.8916.89062-1.19238,2.21875-.8457,3.73828.30859,1.35254,1.11035,2.73047,2.25977,3.87988,1.56445,1.56445,3.43848,2.39941,5.05371,2.39941.99902,0,1.89941-.32031,2.56445-.98535.18164-.18164.34961-.42969.51562-.75781.39648-.78809.24512-1.73438-.37695-2.35645l-.88574-.88574c-.79297-.79297-2.08203-.79297-2.875,0-.39062.39062-.36719,1.02344.02344,1.41406s1.04688.39062,1.4375,0l.88965.92871c-.08984.17969-.14355.24316-.14258.24316-.79883.79785-2.96191.41406-4.79004-1.41406-.87305-.87402-1.50195-1.93457-1.72363-2.91113-.10938-.47656-.21387-1.35547.3125-1.88184.0625-.0625.13574-.12012.25977-.15918l.90918.90918c.0127.0127.0127.0332,0,.0459-.39062.39062-.39062,1.02344,0,1.41406Z"/><path d="M12,2.75977C6.90527,2.75977,2.75977,6.90527,2.75977,12c0,1.63672.44238,3.25488,1.2793,4.67676.2793.47656.89258.63281,1.36914.35547.47656-.28027.63477-.89355.35547-1.36914-.65723-1.11621-1.00391-2.38281-1.00391-3.66309,0-3.99219,3.24805-7.24023,7.24023-7.24023s7.24023,3.24805,7.24023,7.24023-3.24805,7.24023-7.24023,7.24023c-1.28027,0-2.54688-.34668-3.66309-1.00391-.23047-.13574-.50781-.17188-.76562-.10352l-4.00098,1.07227c-.5332.14258-.84961.69141-.70703,1.22461.14355.53418.69238.85156,1.22461.70703l3.60938-.9668c1.3291.70117,2.80762,1.07031,4.30273,1.07031,5.09473,0,9.24023-4.14551,9.24023-9.24023S17.09473,2.75977,12,2.75977Z"/></svg>