<?xml version="1.0" encoding="UTF-8"?><svg id="Layer_2" xmlns="http://www.w3.org/2000/svg" viewBox="0 0 24 24"><path d="M4.38086,5.52344h1.00488l.5022,2.49847c-.00128.02063-.01196.03815-.01196.05914,0,.15967.04553.30499.11206.4389l.72583,3.61139c.01105.05475.03979.09967.05896.15027.01233.0329.01093.06763.02698.09973.00616.01227.0177.01917.02429.03107.04712.08582.10815.15875.17651.22595.01978.01953.03363.0448.05475.06244.09296.07739.19861.13745.3136.17719.02985.01031.06183.00867.09253.01611.07605.01855.15143.04047.23187.04047.01483,0,.03003-.00378.04498-.00446.01575-.00067.03064-.00317.04645-.00458.03564-.00323.07104-.00342.10681-.0105.04602-.00928.0813-.03723.12439-.05231.04163-.01434.08514-.01385.12561-.03412.41309-.20654.86035-.31152,1.32812-.31152,1.64355,0,2.98047,1.33691,2.98047,2.97998s-1.33691,2.97949-2.98047,2.97949c-1.64258,0-2.97949-1.33643-2.97949-2.97949,0-.55225-.44727-1-1-1s-1,.44775-1,1c0,2.74561,2.2334,4.97949,4.97949,4.97949s4.98047-2.23389,4.98047-4.97949c0-.20312-.03625-.39642-.06-.59326h.87445l1.53711,3.78809c.15332.37744.51953.62402.92676.62402h1.89062c.55273,0,1-.44775,1-1s-.44727-1-1-1h-1.21777l-1.53711-3.78809c-.15332-.37744-.51953-.62402-.92676-.62402h-2.23627c-.87714-1.4256-2.43842-2.38672-4.23151-2.38672-.34253,0-.68353.04126-1.01794.11096l-.31085-1.547h3.92352c.55273,0,1-.44775,1-1s-.44727-1-1-1h-4.32544l-.55347-2.75439c-.09375-.46729-.50391-.80322-.98047-.80322h-1.82422c-.55273,0-1,.44775-1,1s.44727,1,1,1Z"/></svg>